<svg xmlns="http://www.w3.org/2000/svg" version="1.1" xmlns:xlink="http://www.w3.org/1999/xlink" xmlns:svgjs="http://svgjs.com/svgjs" width="1440" height="700" preserveAspectRatio="none" viewBox="0 0 1440 700"><g mask="url(&quot;#SvgjsMask1097&quot;)" fill="none"><rect width="1440" height="700" x="0" y="0" fill="url(#SvgjsLinearGradient1098)"></rect><path d="M51 700L751 0L1054 0L354 700z" fill="url(#SvgjsLinearGradient1099)"></path><path d="M531.2 700L1231.2 0L1318.2 0L618.2 700z" fill="url(#SvgjsLinearGradient1099)"></path><path d="M1359 700L659 0L140 0L840 700z" fill="url(#SvgjsLinearGradient1100)"></path><path d="M953.8 700L253.79999999999995 0L-77.70000000000005 0L622.3 700z" fill="url(#SvgjsLinearGradient1100)"></path><path d="M810.646030817817 700L1440 70.64603081781695L1440 700z" fill="url(#SvgjsLinearGradient1099)"></path><path d="M0 700L629.353969182183 700L 0 70.64603081781695z" fill="url(#SvgjsLinearGradient1100)"></path></g><defs><mask id="SvgjsMask1097"><rect width="1440" height="700" fill="#ffffff"></rect></mask><linearGradient x1="50%" y1="100%" x2="50%" y2="0%" gradientUnits="userSpaceOnUse" id="SvgjsLinearGradient1098"><stop stop-color="#0e2a47" offset="0"></stop><stop stop-color="rgba(234, 234, 234, 1)" offset="1"></stop></linearGradient><linearGradient x1="0%" y1="100%" x2="100%" y2="0%" id="SvgjsLinearGradient1099"><stop stop-color="rgba(65, 136, 255, 1)" offset="0"></stop><stop stop-opacity="0" stop-color="rgba(65, 136, 255, 1)" offset="0.66"></stop></linearGradient><linearGradient x1="100%" y1="100%" x2="0%" y2="0%" id="SvgjsLinearGradient1100"><stop stop-color="rgba(65, 136, 255, 1)" offset="0"></stop><stop stop-opacity="0" stop-color="rgba(65, 136, 255, 1)" offset="0.66"></stop></linearGradient></defs></svg>