<svg xmlns="http://www.w3.org/2000/svg" version="1.1" xmlns:xlink="http://www.w3.org/1999/xlink" xmlns:svgjs="http://svgjs.com/svgjs" width="1440" height="700" preserveAspectRatio="none" viewBox="0 0 1440 700"><g mask="url(&quot;#SvgjsMask1064&quot;)" fill="none"><rect width="1440" height="700" x="0" y="0" fill="url(#SvgjsLinearGradient1065)"></rect><path d="M53 700L753 0L1344 0L644 700z" fill="url(#SvgjsLinearGradient1066)"></path><path d="M567.2 700L1267.2 0L1352.7 0L652.7 700z" fill="url(#SvgjsLinearGradient1066)"></path><path d="M1405 700L705 0L240 0L940 700z" fill="url(#SvgjsLinearGradient1067)"></path><path d="M923.8 700L223.79999999999995 0L-464.70000000000005 0L235.29999999999995 700z" fill="url(#SvgjsLinearGradient1067)"></path><path d="M810.4154409773492 700L1440 70.41544097734925L1440 700z" fill="url(#SvgjsLinearGradient1066)"></path><path d="M0 700L629.5845590226508 700L 0 70.41544097734925z" fill="url(#SvgjsLinearGradient1067)"></path></g><defs><mask id="SvgjsMask1064"><rect width="1440" height="700" fill="#ffffff"></rect></mask><linearGradient x1="50%" y1="100%" x2="50%" y2="0%" gradientUnits="userSpaceOnUse" id="SvgjsLinearGradient1065"><stop stop-color="rgba(243, 243, 243, 1)" offset="0"></stop><stop stop-color="rgba(243, 243, 243, 1)" offset="1"></stop></linearGradient><linearGradient x1="0%" y1="100%" x2="100%" y2="0%" id="SvgjsLinearGradient1066"><stop stop-color="rgba(65, 136, 255, 1)" offset="0"></stop><stop stop-opacity="0" stop-color="rgba(65, 136, 255, 1)" offset="0.66"></stop></linearGradient><linearGradient x1="100%" y1="100%" x2="0%" y2="0%" id="SvgjsLinearGradient1067"><stop stop-color="rgba(65, 136, 255, 1)" offset="0"></stop><stop stop-opacity="0" stop-color="rgba(65, 136, 255, 1)" offset="0.66"></stop></linearGradient></defs></svg>